<svg xmlns="http://www.w3.org/2000/svg" xmlns:xlink="http://www.w3.org/1999/xlink" viewBox="0 0 767.63 139.35"><defs><style>.cls-1{fill:url(#radial-gradient);}</style><radialGradient id="radial-gradient" cx="82.68" cy="-13.64" r="774.53" gradientUnits="userSpaceOnUse"><stop offset="0" stop-color="#e06cf2"/><stop offset="1" stop-color="#174891"/></radialGradient></defs><g id="Layer_2" data-name="Layer 2"><g id="Layer_1-2" data-name="Layer 1"><path class="cls-1" d="M110.47,136.62H75L31.23,73.39v63.23H0V0H31.23V59.33L73,0h35.52L62.46,66.55Zm48.8,2.73c-14.45,0-26.74-4.87-36.7-14.83s-15-22.25-15-36.69a49.67,49.67,0,0,1,15-36.5c10-9.95,22.25-15,36.7-15S186,41.38,196,51.33a49.67,49.67,0,0,1,15,36.5c0,14.44-5.08,26.74-15,36.69S173.71,139.35,159.27,139.35Zm0-28.49a21.62,21.62,0,0,0,16-6.44c4.29-4.29,6.44-9.76,6.44-16.59s-2.15-12.3-6.44-16.59a23.11,23.11,0,0,0-32,0c-4.29,4.29-6.44,9.76-6.44,16.59s2.15,12.3,6.44,16.59A21.63,21.63,0,0,0,159.27,110.86ZM310.72,47c7,7.22,10.54,17,10.54,29.66v59.92H292V81c0-11.52-7-17.76-17-17.76-11.13,0-18.16,6.83-18.16,20.1v53.28H227.58V39h29.27v9.17c5.86-8,15.23-11.91,27.92-11.91C295.11,36.3,303.89,39.82,310.72,47Zm87.83,20.1h-20.1v34.55c0,7.8,5.86,9.17,20.1,8.39v26.54q-27.81,2.92-38.64-5.27c-7.22-5.66-10.74-15.42-10.74-29.66V67.14H333.56V39h15.61V20.49l29.28-8.78V39h20.1Zm47.82-10.73c3.71-12.5,16-19.33,29.28-19.33V70.26A29,29,0,0,0,455.54,74c-6.05,3.51-9.17,9.76-9.17,18.54v44.11H417.1V39h29.27ZM557.23,39h29.28v97.58H557.23v-9.17c-6.83,8-16.59,11.9-29.08,11.9-12.88,0-23.81-4.87-33-14.83S481.5,102.27,481.5,87.83s4.49-26.54,13.67-36.5,20.1-15,33-15c12.49,0,22.25,3.91,29.08,11.91ZM534,111.64c6.83,0,12.49-2.15,16.78-6.44s6.44-10.15,6.44-17.37-2.14-13.08-6.44-17.37S540.84,64,534,64s-12.49,2.14-16.79,6.44-6.44,10.15-6.44,17.37,2.15,13.08,6.44,17.37S527.18,111.64,534,111.64Zm167.65,25H668.48L637.25,93.49v43.13H608V0h29.27V81.78L666.53,39h34.16L665.16,87.83Zm66-69.48h-20.1v34.55c0,7.8,5.86,9.17,20.1,8.39v26.54q-27.81,2.92-38.64-5.27c-7.22-5.66-10.74-15.42-10.74-29.66V67.14H702.64V39h15.61V20.49l29.28-8.78V39h20.1Z"/></g></g></svg>